<svg width="20" height="20" viewBox="0 0 20 20" fill="none" xmlns="http://www.w3.org/2000/svg">
  <!-- Simplified Apple logo -->
  <path d="M13.8 3.2c.7-.8 1.2-2 1.1-3.2-1 0-2.2.7-2.9 1.5-.6.7-1.2 1.9-1 3 1.1.1 2.2-.6 2.8-1.3z" fill="white"/>
  <path d="M15.5 8.5c-.1-2.8-2.3-4.2-2.4-4.3 1.3-1.9 2.2-3.1 1.9-4.9-1.8.1-4 1.1-5.3 2.5-1.1 1.3-2.1 3.3-1.8 5.2 1.9.1 3.9-1 4.6-2.5z" fill="white"/>
  <path d="M13.1 14c1.6-.1 3.1-1.3 3.9-3.1.9-2 .4-4.4-1.3-5.9-1.7-1.5-4.2-1.4-6.2.3-2 1.7-2.6 4.7-1.4 7.2 1.2 2.5 3.8 3.7 6.2 3.4-.4.9-1 1.7-1.8 2.3-.8.6-1.8.9-2.8.8-1-.1-1.9-.7-2.5-1.5-.6-.8-.9-1.8-.8-2.8.1-1 .6-1.9 1.4-2.5.8-.6 1.8-.8 2.8-.6" fill="white"/>
</svg>
