<svg width="16" height="16" viewBox="0 0 16 16" fill="none" xmlns="http://www.w3.org/2000/svg">
  <path d="M8 2C5.4 2 3 2.9 1.1 4.5L2.5 6C3.9 4.8 5.9 4 8 4s4.1 0.8 5.5 2l1.4-1.5C13 2.9 10.6 2 8 2z" fill="black"/>
  <path d="M8 6C6.3 6 4.7 6.6 3.5 7.7L4.9 9.2C5.7 8.4 6.8 8 8 8s2.3 0.4 3.1 1.2l1.4-1.5C11.3 6.6 9.7 6 8 6z" fill="black"/>
  <path d="M8 10c-0.8 0-1.5 0.3-2 0.8l1.4 1.4c0.3-0.3 0.8-0.3 1.2 0l1.4-1.4C9.5 10.3 8.8 10 8 10z" fill="black"/>
  <circle cx="8" cy="14" r="1" fill="black"/>
</svg>
